<svg width="417" height="196" viewBox="0 0 417 196" fill="none" xmlns="http://www.w3.org/2000/svg">
<path d="M10.9272 173.899C10.815 174.135 10.7444 174.357 10.7155 174.565C10.6813 174.813 10.7258 175.018 10.849 175.18C10.961 175.329 11.1471 175.421 11.4072 175.457L23.5027 177.134C23.7628 177.17 23.9734 177.133 24.1345 177.022C24.2844 176.897 24.3765 176.711 24.4108 176.464C24.4396 176.256 24.4321 176.023 24.3884 175.765L24.8761 175.833L24.2675 180.222L23.7798 180.155C23.8939 179.905 23.9645 179.683 23.9915 179.488C24.0258 179.241 23.9869 179.043 23.8749 178.895C23.7516 178.732 23.56 178.633 23.2999 178.597L10.7947 176.863L24.1952 183.612L24.1547 183.905L10.6125 187.356L21.8718 188.897C22.1189 188.932 22.3302 188.842 22.5058 188.627C22.6831 188.4 22.7961 188.111 22.8448 187.76C22.8808 187.5 22.8779 187.234 22.8359 186.963L23.3236 187.031L22.7124 191.44L22.2247 191.372C22.337 191.136 22.4111 190.888 22.4472 190.627C22.4941 190.289 22.4613 190 22.3489 189.759C22.2365 189.518 22.0567 189.38 21.8096 189.346L9.71411 187.669C9.467 187.635 9.25929 187.699 9.09098 187.861C8.92267 188.023 8.81688 188.261 8.77361 188.573C8.74295 188.794 8.74861 189.04 8.79059 189.311L8.30287 189.243L8.72208 186.219L21.8665 182.912L9.97974 177.148L10.4395 173.831L10.9272 173.899Z" fill="white" fill-opacity="0.5"/>
<path d="M23.5106 162.14C23.6369 162.357 23.8722 162.537 24.2166 162.682C24.5638 162.813 25.0898 162.958 25.7944 163.116L27.7547 163.556L25.569 173.3L25.0885 173.192C25.22 172.966 25.3087 172.75 25.3547 172.545C25.4093 172.302 25.3869 172.101 25.2876 171.945C25.1782 171.772 24.9955 171.657 24.7392 171.6L12.8242 168.927C12.5679 168.869 12.3599 168.897 12.2002 169.009C12.0305 169.105 11.9184 169.275 11.8638 169.519C11.8178 169.724 11.8059 169.957 11.8282 170.217L11.3478 170.109L13.3524 161.173L13.8968 161.356C14.1316 161.449 14.4412 161.538 14.8255 161.625C15.5814 161.794 16.1909 161.837 16.6539 161.752L16.5849 162.06C16.2843 162.14 15.9089 162.164 15.459 162.13C14.9776 162.116 14.5916 162.158 14.3009 162.254C13.9973 162.347 13.7027 162.611 13.417 163.045C13.1313 163.478 12.8821 164.169 12.6694 165.117C12.5171 165.797 12.5218 166.316 12.6834 166.675C12.845 167.034 13.0532 167.276 13.3079 167.4C13.5526 167.509 13.9155 167.631 14.3966 167.766L18.048 168.585L18.643 165.933C18.7263 165.561 18.7774 165.303 18.7962 165.16C18.805 165 18.7733 164.872 18.7008 164.775C18.6284 164.678 18.4833 164.605 18.2655 164.556C17.8811 164.47 17.5871 164.431 17.3834 164.439C17.1826 164.434 17.0578 164.541 17.0089 164.759L16.7591 164.703L16.9272 163.953L21.3858 164.953L21.2176 165.703L20.9486 165.642C20.9974 165.425 20.9237 165.274 20.7273 165.189C20.521 165.089 20.2193 164.994 19.8221 164.905C19.6171 164.859 19.4625 164.919 19.3582 165.084C19.2439 165.233 19.1272 165.543 19.0081 166.015L18.4132 168.667L23.8134 169.878C24.2547 169.95 24.6314 169.981 24.9433 169.97C25.2424 169.956 25.5432 169.815 25.8457 169.547C26.151 169.265 26.3798 168.785 26.5321 168.106C26.7793 167.004 26.8523 166.139 26.751 165.511C26.6369 164.88 26.4299 164.423 26.1299 164.14C25.8172 163.855 25.377 163.568 24.8093 163.279C24.1904 162.979 23.7373 162.689 23.4502 162.409L23.5106 162.14Z" fill="white" fill-opacity="0.5"/>
<path d="M30.9926 154.054C30.6716 155.123 30.0325 156.041 29.0752 156.809C28.1091 157.561 26.9733 158.056 25.6678 158.295C24.3623 158.533 23.0619 158.458 21.7666 158.069C20.3581 157.646 19.1774 156.99 18.2243 156.101C17.2713 155.211 16.6239 154.194 16.2821 153.05C15.9404 151.905 15.9451 150.748 16.2963 149.579C16.4927 148.925 16.8934 148.229 17.4986 147.492C18.1075 146.743 18.6893 146.267 19.244 146.063L17.9142 145.355L18.0105 145.035L22.217 146.298L22.0981 146.694C21.4441 146.498 20.7361 146.504 19.9739 146.714C19.2154 146.911 18.5249 147.293 17.9022 147.86C17.2795 148.427 16.8435 149.126 16.5943 149.956C16.3375 150.811 16.4108 151.663 16.8143 152.51C17.2177 153.358 17.891 154.129 18.834 154.824C19.7645 155.514 20.8774 156.054 22.1726 156.443C23.4176 156.817 24.6356 156.984 25.8266 156.944C27.0088 156.888 28.0402 156.581 28.9207 156.023C29.805 155.452 30.4114 154.619 30.74 153.525C30.9817 152.721 30.97 151.915 30.7048 151.109C30.4397 150.303 29.9852 149.625 29.3415 149.075C29.2648 149.011 29.0296 148.858 28.6361 148.616C28.2852 148.415 27.9973 148.232 27.7722 148.069C27.5383 147.889 27.3453 147.687 27.1932 147.463L27.2725 147.199C27.3882 147.453 27.6717 147.696 28.1231 147.927C28.5783 148.146 29.2272 148.382 30.0698 148.635C30.3716 148.726 30.6375 149.073 30.8675 149.677C31.0886 150.264 31.2199 150.969 31.2611 151.79C31.2936 152.595 31.2041 153.349 30.9926 154.054Z" fill="white" fill-opacity="0.5"/>
<path d="M23.0511 133.638C23.2706 133.763 23.5647 133.894 23.9333 134.033C24.6582 134.307 25.2558 134.434 25.7261 134.414L25.615 134.709C25.306 134.747 24.9311 134.718 24.4902 134.622C24.0154 134.541 23.6274 134.528 23.3261 134.583C23.0125 134.633 22.6841 134.853 22.3407 135.243C21.9974 135.633 21.6543 136.282 21.3117 137.192C21.2515 137.351 21.1966 137.534 21.1471 137.74L33.4582 142.38C33.704 142.473 33.9176 142.483 34.099 142.411C34.2728 142.322 34.4037 142.161 34.4917 141.928C34.5658 141.731 34.61 141.502 34.6242 141.241L35.085 141.415L33.5221 145.561L33.0613 145.388C33.2277 145.17 33.3456 144.969 33.415 144.784C33.503 144.551 33.5087 144.35 33.4322 144.18C33.348 143.994 33.183 143.855 32.9373 143.762L20.6261 139.122C20.5274 139.31 20.4503 139.477 20.3947 139.624C20.0521 140.534 19.8811 141.248 19.8817 141.767C19.8824 142.287 19.984 142.669 20.1864 142.914C20.3766 143.154 20.6766 143.4 21.0865 143.653C21.4811 143.872 21.7819 144.097 21.989 144.33L21.8779 144.625C21.5372 144.3 21.0045 144.001 20.2796 143.727C19.911 143.589 19.603 143.493 19.3557 143.442L18.8004 143.296L22.5375 133.381L23.0511 133.638Z" fill="white" fill-opacity="0.5"/>
<path d="M40.4124 130.238C39.8577 131.443 39.0612 132.341 38.0227 132.933C36.9723 133.519 35.8033 133.797 34.5157 133.768C33.2336 133.727 31.9458 133.416 30.6522 132.835C29.6329 132.38 28.6864 131.72 27.8125 130.855C26.9268 129.985 26.3151 128.959 25.9775 127.777C25.6279 126.589 25.7607 125.328 26.3758 123.992C26.9963 122.644 27.8561 121.703 28.9552 121.168C30.0478 120.616 31.2068 120.391 32.4321 120.493C33.6629 120.582 34.8269 120.88 35.9241 121.385C37.2241 121.984 38.3147 122.739 39.1959 123.65C40.0652 124.557 40.6269 125.581 40.8811 126.725C41.1288 127.851 40.9725 129.022 40.4124 130.238ZM40.0546 130.074C40.7191 128.631 40.5794 127.301 39.6356 126.086C38.6853 124.854 37.2175 123.788 35.2322 122.888C34.201 122.427 33.1131 122.122 31.9685 121.97C30.8293 121.807 29.7835 121.897 28.831 122.239C27.872 122.563 27.1729 123.203 26.7336 124.157C26.2887 125.123 26.2873 126.084 26.7293 127.039C27.1593 127.988 27.8272 128.845 28.7331 129.609C29.6444 130.361 30.5831 130.96 31.5491 131.405C32.7657 131.965 33.9343 132.315 35.0551 132.455C36.1814 132.584 37.185 132.46 38.0659 132.085C38.9524 131.698 39.6153 131.028 40.0546 130.074Z" fill="white" fill-opacity="0.5"/>
<path d="M37.5681 104.888C37.3712 105.079 37.2247 105.26 37.1286 105.432C37.0069 105.65 36.9738 105.857 37.0294 106.053C37.08 106.232 37.2198 106.386 37.4491 106.514L48.1082 112.472C48.3374 112.6 48.5471 112.642 48.7373 112.597C48.9223 112.535 49.0757 112.396 49.1975 112.178C49.3 111.994 49.3777 111.775 49.4306 111.518L49.8604 111.759L47.6983 115.627L47.2685 115.387C47.4654 115.196 47.6119 115.015 47.708 114.843C47.8297 114.625 47.8653 114.427 47.8148 114.248C47.7592 114.051 47.6167 113.889 47.3875 113.761L41.4906 110.465L37.9255 116.843L43.8224 120.139C44.0516 120.267 44.2613 120.309 44.4515 120.265C44.6366 120.203 44.7932 120.058 44.9213 119.828C45.0174 119.656 45.0919 119.442 45.1448 119.186L45.5747 119.426L43.4125 123.295L42.9827 123.054C43.1732 122.875 43.3197 122.694 43.4222 122.51C43.5439 122.293 43.5795 122.094 43.529 121.916C43.4734 121.719 43.3309 121.557 43.1017 121.429L32.4426 115.471C32.2133 115.343 32.0062 115.31 31.8211 115.372C31.631 115.416 31.475 115.547 31.3533 115.764C31.2508 115.948 31.1731 116.168 31.1201 116.424L30.6903 116.184L32.8525 112.315L33.2823 112.556C33.0918 112.735 32.9453 112.916 32.8428 113.1C32.7211 113.317 32.688 113.525 32.7436 113.721C32.7942 113.9 32.9341 114.053 33.1633 114.181L37.5817 116.651L41.1468 110.273L36.7284 107.803C36.4991 107.675 36.292 107.642 36.1069 107.704C35.9168 107.748 35.7608 107.879 35.6391 108.097C35.543 108.269 35.4653 108.489 35.4059 108.756L34.9761 108.516L37.1383 104.648L37.5681 104.888Z" fill="white" fill-opacity="0.5"/>
<path d="M56.1167 101.133C56.4518 101.246 56.7249 101.144 56.936 100.827C57.0744 100.619 57.1964 100.306 57.3019 99.8873L57.7116 100.16L55.0793 104.11L54.6695 103.837C54.99 103.593 55.2266 103.356 55.3796 103.127C55.5543 102.865 55.5488 102.672 55.3631 102.548C55.3085 102.511 55.2611 102.488 55.2211 102.477L49.5671 100.839L47.2515 104.313C48.3005 105.581 49.3604 106.831 50.4312 108.066L50.7645 108.453C50.8155 108.519 50.8902 108.585 50.9885 108.65C51.3053 108.861 51.5948 108.77 51.857 108.377C52.0026 108.158 52.1209 107.874 52.2119 107.525L52.6217 107.798L50.3388 111.223L49.9291 110.95C50.2022 110.753 50.4188 110.535 50.579 110.294C50.7975 109.967 50.8229 109.644 50.6554 109.327C50.5534 109.149 50.4386 108.978 50.3112 108.814L41.3018 97.792L41.9353 96.8414L56.1167 101.133ZM47.0111 104.035L49.2065 100.741L42.6949 98.8624L47.0111 104.035Z" fill="white" fill-opacity="0.5"/>
<path d="M58.0845 99.0274C58.4111 98.7986 58.6346 98.6064 58.7552 98.4507C58.9723 98.1704 59.0125 97.8611 58.8759 97.5228L58.2697 95.9574L56.1719 90.7208L49.0665 89.6027C48.76 89.5481 48.4986 89.5532 48.2822 89.6182C48.0635 89.6647 47.8778 89.7866 47.7251 89.9839C47.6447 90.0877 47.5403 90.2975 47.412 90.6133L47.0227 90.3118L49.9289 86.5589L50.3182 86.8604C50.0446 87.0637 49.8595 87.2276 49.763 87.3521C49.6344 87.5183 49.561 87.6773 49.5429 87.8294C49.5329 87.971 49.5901 88.0901 49.7147 88.1866C49.8081 88.2589 49.9217 88.3053 50.0553 88.3258L55.5572 89.1986L53.6523 84.485L53.4388 84.0208C53.3856 83.8966 53.3122 83.7983 53.2188 83.7259C53.0838 83.6214 52.9278 83.6085 52.7506 83.6872C52.5734 83.7659 52.4044 83.909 52.2436 84.1166C52.0829 84.3243 51.9475 84.5848 51.8376 84.8983L51.4483 84.5968L53.9686 81.3422L54.3579 81.6437C54.0314 81.8724 53.8078 82.0646 53.6872 82.2203C53.4701 82.5006 53.4299 82.8099 53.5665 83.1482C54.4186 85.2861 55.2446 87.329 56.0445 89.277L63.6096 90.4771L63.8101 90.5077C64.1246 90.552 64.386 90.5468 64.5943 90.4923C64.8107 90.4273 64.9952 90.2962 65.148 90.099C65.2685 89.9432 65.3741 89.7426 65.4645 89.4972L65.8538 89.7986L62.9476 93.5515L62.5583 93.2501C62.7918 93.0987 62.9809 92.9296 63.1256 92.7427C63.2542 92.5766 63.3236 92.4227 63.3336 92.2811C63.3517 92.129 63.3037 92.0088 63.1895 91.9203C63.096 91.848 62.9733 91.8028 62.8213 91.7847L56.6748 90.8113C57.631 93.1793 58.3414 94.9749 58.8057 96.1981L59.0036 96.6502C59.0569 96.7745 59.1302 96.8728 59.2236 96.9451C59.3586 97.0497 59.5147 97.0626 59.6918 96.9839C59.869 96.9052 60.038 96.762 60.1988 96.5544C60.3596 96.3468 60.4949 96.0862 60.6048 95.7728L60.9941 96.0742L58.4738 99.3288L58.0845 99.0274Z" fill="white" fill-opacity="0.5"/>
<path d="M71.5428 84.1567C70.6584 85.1449 69.633 85.769 68.4665 86.029C67.2901 86.2802 66.0909 86.2026 64.8689 85.7961C63.6555 85.3799 62.5161 84.7038 61.4507 83.7679C60.6102 83.0334 59.8996 82.1244 59.3188 81.0407C58.7281 79.9483 58.4452 78.7877 58.4701 77.5589C58.4851 76.3213 58.983 75.1546 59.9637 74.0588C60.9531 72.9531 62.0517 72.3064 63.2594 72.1185C64.4661 71.9121 65.6401 72.0376 66.7813 72.495C67.9313 72.9427 68.9564 73.5693 69.8565 74.3749C70.923 75.3293 71.7434 76.3717 72.3175 77.5023C72.8818 78.624 73.1174 79.7686 73.024 80.9362C72.9297 82.0852 72.4359 83.1587 71.5428 84.1567ZM71.2493 83.894C72.3088 82.7101 72.5661 81.3986 72.0214 79.9596C71.4756 78.5021 70.3862 77.0514 68.7533 75.6077C67.9031 74.8645 66.9532 74.2523 65.9036 73.7712C64.8628 73.2803 63.8369 73.0582 62.826 73.105C61.814 73.1332 60.9577 73.5387 60.2572 74.3214C59.548 75.114 59.2641 76.0317 59.4057 77.0746C59.5374 78.1088 59.9238 79.1242 60.5649 80.1208C61.2148 81.1076 61.936 81.9556 62.7285 82.6649C63.7265 83.558 64.7405 84.2364 65.7705 84.7C66.8092 85.1538 67.8047 85.3311 68.757 85.2317C69.718 85.1227 70.5488 84.6767 71.2493 83.894Z" fill="white" fill-opacity="0.5"/>
<path d="M89.1417 65.6147C89.4483 65.6167 89.7603 65.4703 90.0778 65.1755C90.328 64.9432 90.5568 64.659 90.7643 64.3229L91.019 64.5971C90.8774 64.9078 90.6046 65.2507 90.2005 65.626C89.9984 65.8136 89.7641 65.9954 89.4974 66.1714C88.8707 66.5384 88.2593 66.7388 87.6635 66.7724C87.0772 66.7972 86.4638 66.677 85.8233 66.4117C85.1924 66.1375 84.446 65.7197 83.5841 65.1582C82.8583 64.6854 82.0941 64.3737 81.2913 64.2232C80.4893 64.0542 79.9151 64.1305 79.5687 64.4522L78.544 65.4037L83.1946 70.4117C83.3733 70.6041 83.5599 70.7086 83.7544 70.7251C83.9496 70.723 84.1386 70.6371 84.3214 70.4673C84.4753 70.3244 84.6169 70.1392 84.7461 69.9117L85.0812 70.2725L81.8339 73.288L81.4989 72.9272C81.7353 72.8152 81.9305 72.6877 82.0844 72.5447C82.2672 72.3749 82.3621 72.1973 82.3689 72.0117C82.3765 71.8076 82.2909 71.6093 82.1122 71.4169L77.4616 66.4089L76.4225 67.3739C76.0761 67.6955 75.9528 68.267 76.0524 69.0883C76.1528 69.891 76.4119 70.6717 76.8298 71.4305C77.3261 72.3315 77.6828 73.1112 77.9 73.7696C78.1268 74.419 78.2014 75.0396 78.1238 75.6314C78.0558 76.2142 77.8156 76.8046 77.4032 77.4025C77.2081 77.6554 77.0094 77.8757 76.8074 78.0633C76.4033 78.4386 76.0411 78.6853 75.7208 78.8036L75.4662 78.5294C75.8167 78.3472 76.117 78.14 76.3672 77.9077C76.6847 77.6128 76.8538 77.3125 76.8744 77.0067C76.9121 76.4878 76.8101 75.8569 76.5681 75.1139C76.3262 74.371 75.9004 73.4494 75.2907 72.3491C74.9773 71.78 74.79 71.1924 74.7288 70.5862C74.6683 69.9615 74.7267 69.3876 74.904 68.8646C75.0724 68.332 75.3394 67.8959 75.705 67.5564L69.0154 66.8071C68.6999 66.7955 68.401 66.8402 68.1185 66.9412C67.8271 67.0326 67.5804 67.1721 67.3783 67.3598C67.2533 67.4759 67.1313 67.634 67.0124 67.834L66.6773 67.4732L69.5782 64.7793L69.9133 65.1401C69.7057 65.2254 69.5394 65.3261 69.4143 65.4422C69.2796 65.5673 69.2006 65.6944 69.1772 65.8237C69.1538 65.9529 69.1824 66.0608 69.2628 66.1474C69.3432 66.2339 69.4758 66.29 69.6607 66.3154L76.0699 67.11L77.1667 66.0914L73.8028 62.4689C73.6241 62.2765 73.4371 62.1813 73.2419 62.1834C73.0474 62.1669 72.8588 62.2435 72.676 62.4133C72.5317 62.5473 72.3901 62.7325 72.2513 62.969L71.9162 62.6082L75.1635 59.5926L75.4985 59.9534C75.2525 60.0744 75.0573 60.2019 74.913 60.3359C74.7302 60.5057 74.635 60.6926 74.6274 60.8968C74.6206 61.0823 74.7065 61.2713 74.8852 61.4637L78.2492 65.0862L79.3316 64.0811L79.0128 57.6307C79.0011 57.4444 78.9551 57.308 78.8746 57.2214C78.7942 57.1348 78.6887 57.0984 78.5581 57.1122C78.4276 57.1259 78.2997 57.1909 78.1747 57.307C78.0496 57.4232 77.9321 57.586 77.8221 57.7957L77.487 57.4349L80.3879 54.741L80.723 55.1018C80.5147 55.2056 80.3481 55.3156 80.223 55.4317C80.0209 55.6193 79.8636 55.8551 79.7509 56.1389C79.6292 56.4132 79.5626 56.708 79.5509 57.0235L79.8037 63.7501C80.1693 63.4106 80.624 63.1766 81.1676 63.048C81.7023 62.9099 82.2741 62.8985 82.883 63.0139C83.4926 63.1108 84.0696 63.3366 84.6139 63.6912C85.6662 64.3805 86.5538 64.8732 87.2768 65.1694C87.9998 65.4656 88.6215 65.614 89.1417 65.6147Z" fill="white" fill-opacity="0.5"/>
<path d="M92.7982 68.8643C92.8403 68.6171 92.7757 68.3275 92.6042 67.9957C92.4224 67.6719 92.1119 67.2234 91.6727 66.6501L90.4511 65.0553C90.6369 64.9956 90.8133 64.9019 90.98 64.7741C91.3032 64.5266 91.4741 64.1559 91.4927 63.662C91.4423 62.8405 91.0745 61.6585 90.3891 60.116C89.7062 58.5551 88.9168 56.9848 88.021 55.405C87.1172 53.8149 86.3604 52.6 85.7504 51.7606C85.4375 51.7191 85.109 51.8301 84.7651 52.0936C84.5983 52.2214 84.423 52.4136 84.2391 52.6702L83.9397 52.2793L92.336 45.8478L92.6474 46.2543C92.4014 46.3435 92.195 46.452 92.0283 46.5797C91.8302 46.7314 91.7178 46.9085 91.6909 47.111C91.6665 47.2951 91.7342 47.4914 91.8939 47.6998L99.3194 57.3939C99.4791 57.6023 99.655 57.724 99.8471 57.7588C100.042 57.7752 100.238 57.7076 100.436 57.5559C100.603 57.4281 100.761 57.2571 100.911 57.0429L102.133 58.6377C102.572 59.211 102.924 59.6276 103.189 59.8875C103.465 60.1395 103.728 60.2773 103.978 60.301L103.759 60.4687C103.49 60.3769 103.243 60.2599 103.019 60.1177C102.804 59.9676 102.566 59.7862 102.304 59.5735C101.981 59.3247 101.711 59.1344 101.494 59.0026C101.278 58.8709 101.018 58.7803 100.716 58.7309C100.424 58.6734 100.089 58.69 99.7117 58.7805C99.5779 58.8002 99.3676 58.9034 99.0806 59.0902C98.812 59.2794 98.2776 59.6722 97.4774 60.2686C94.2388 62.799 92.5757 64.1473 92.4881 64.3137C92.2148 64.8207 92.0946 65.2684 92.1275 65.6567C92.1787 66.0475 92.3174 66.5201 92.5437 67.0746C92.6863 67.4119 92.7982 67.6983 92.8794 67.9338C92.9501 68.1774 92.996 68.4316 93.0171 68.6967L92.7982 68.8643ZM97.178 59.8777C97.6263 59.5343 97.8855 59.2034 97.9558 58.8849C98.0261 58.5665 97.9891 58.2806 97.8447 58.0273C97.7107 57.7661 97.4641 57.4009 97.1048 56.9318L90.7212 48.5981C90.5216 48.3375 90.3184 48.245 90.1117 48.3206C89.9075 48.3779 89.576 48.5821 89.1174 48.9335C87.6893 50.0273 86.7531 50.8024 86.3087 51.2586C86.8707 52.0355 87.5621 53.1433 88.383 54.582C89.2063 56.0023 89.9575 57.4364 90.6366 58.8844C91.3157 60.3324 91.7529 61.4862 91.9481 62.3456L92.0256 62.6087C92.1043 62.8627 92.1677 63.0209 92.2156 63.0834C92.3353 63.2398 92.5298 63.2562 92.7991 63.1327C93.0603 62.9987 93.5297 62.6722 94.2073 62.1532L97.178 59.8777Z" fill="white" fill-opacity="0.5"/>
<path d="M110.085 46.3422C110.024 46.5856 110.066 46.8792 110.212 47.223C110.369 47.5596 110.645 48.0304 111.039 48.6353L112.137 50.3181L103.772 55.7725L103.503 55.36C103.755 55.2897 103.969 55.1972 104.145 55.0825C104.354 54.9462 104.478 54.7872 104.516 54.6055C104.558 54.4056 104.507 54.1957 104.364 53.9757L97.694 43.7472C97.5506 43.5272 97.3825 43.4017 97.1898 43.3706C97.0009 43.3213 96.802 43.3648 96.593 43.5011C96.417 43.6159 96.2461 43.7744 96.0802 43.9766L95.8112 43.5642L103.483 38.5616L103.745 39.0724C103.848 39.3028 104.008 39.5831 104.223 39.913C104.646 40.5619 105.053 41.0176 105.443 41.2802L105.18 41.4523C104.908 41.3002 104.623 41.0552 104.324 40.7171C103.989 40.3713 103.683 40.1315 103.408 39.9976C103.125 39.8527 102.73 39.8359 102.223 39.9473C101.716 40.0587 101.055 40.3798 100.241 40.9105C99.6583 41.2906 99.2994 41.6658 99.1645 42.0359C99.0296 42.406 99.01 42.7244 99.1056 42.9913C99.2051 43.2399 99.3801 43.5804 99.6306 44.0127L101.675 47.1472L103.951 45.6626C104.27 45.4546 104.487 45.3057 104.6 45.2158C104.718 45.1077 104.785 44.9937 104.801 44.8737C104.816 44.7536 104.763 44.6001 104.641 44.4132C104.426 44.0832 104.243 43.8501 104.091 43.7138C103.951 43.5703 103.787 43.5596 103.6 43.6815L103.46 43.467L104.104 43.0475L106.599 46.8749L105.956 47.2945L105.805 47.0635C105.992 46.9416 106.045 46.7819 105.963 46.5844C105.885 46.3687 105.735 46.0904 105.513 45.7495C105.398 45.5735 105.246 45.5082 105.056 45.5536C104.87 45.5809 104.57 45.7217 104.156 45.9761L101.879 47.4607L104.902 52.0965C105.168 52.4561 105.416 52.7409 105.647 52.9508C105.871 53.1498 106.185 53.2586 106.589 53.2772C107.004 53.2887 107.503 53.1044 108.086 52.7243C109.032 52.1075 109.688 51.5387 110.054 51.018C110.412 50.4863 110.583 50.0146 110.565 49.6029C110.54 49.1802 110.425 48.6673 110.22 48.0643C109.986 47.4173 109.864 46.8935 109.854 46.4928L110.085 46.3422Z" fill="white" fill-opacity="0.5"/>
<path d="M119.833 29.9583C119.565 30.0156 119.344 30.0916 119.172 30.1864C118.953 30.3064 118.815 30.4645 118.758 30.6606C118.706 30.8389 118.743 31.0432 118.87 31.2734L124.746 41.9777C124.872 42.2079 125.028 42.3547 125.212 42.4181C125.402 42.4637 125.607 42.4265 125.825 42.3064C126.009 42.2053 126.192 42.0602 126.373 41.8711L126.61 42.3028L122.725 44.4353L122.488 44.0036C122.756 43.9463 122.976 43.8703 123.149 43.7755C123.368 43.6555 123.503 43.5063 123.555 43.328C123.612 43.1319 123.578 42.9187 123.451 42.6885L120.2 36.7666L113.795 40.2829L117.046 46.2048C117.172 46.435 117.328 46.5818 117.512 46.6452C117.702 46.6908 117.912 46.6504 118.142 46.5241C118.315 46.4293 118.492 46.2873 118.672 46.0982L118.909 46.5299L115.025 48.6624L114.788 48.2307C115.044 48.1798 115.265 48.1037 115.449 48.0026C115.668 47.8826 115.803 47.7334 115.855 47.5551C115.912 47.359 115.877 47.1458 115.751 46.9156L109.875 36.2113C109.748 35.9811 109.59 35.8432 109.4 35.7976C109.216 35.7342 109.014 35.7625 108.795 35.8826C108.611 35.9837 108.429 36.1288 108.248 36.3179L108.011 35.8862L111.896 33.7537L112.133 34.1854C111.876 34.2364 111.656 34.3124 111.472 34.4135C111.253 34.5335 111.115 34.6916 111.058 34.8877C111.006 35.066 111.043 35.2703 111.17 35.5005L113.605 39.9376L120.011 36.4213L117.575 31.9842C117.449 31.754 117.29 31.6161 117.101 31.5705C116.916 31.5071 116.714 31.5354 116.496 31.6554C116.323 31.7502 116.141 31.8953 115.948 32.0908L115.711 31.6591L119.596 29.5266L119.833 29.9583Z" fill="white" fill-opacity="0.5"/>
<path d="M134.666 23.3536C134.394 23.3891 134.169 23.4472 133.989 23.5278C133.761 23.6298 133.611 23.7763 133.538 23.9672C133.472 24.1407 133.493 24.3473 133.6 24.5869L138.596 35.7293C138.704 35.9689 138.847 36.1278 139.026 36.2059C139.211 36.2666 139.418 36.2459 139.646 36.1438C139.837 36.0579 140.031 35.9279 140.226 35.754L140.428 36.2033L136.384 38.0163L136.183 37.567C136.454 37.5315 136.68 37.4734 136.86 37.3928C137.088 37.2908 137.234 37.153 137.301 36.9794C137.373 36.7885 137.356 36.5733 137.248 36.3337L132.792 26.3954L130.396 38.9098L130.581 39.3232C130.688 39.5628 130.832 39.7217 131.01 39.7997C131.196 39.8604 131.403 39.8398 131.63 39.7377C131.822 39.6518 132.015 39.5218 132.211 39.3478L132.412 39.7971L128.369 41.6102L128.167 41.1609C128.427 41.1307 128.653 41.0726 128.845 40.9867C129.072 40.8846 129.219 40.7468 129.285 40.5733C129.358 40.3824 129.341 40.1672 129.233 39.9275L124.237 28.7851C124.13 28.5455 123.983 28.3953 123.798 28.3346C123.619 28.2565 123.416 28.2685 123.188 28.3706C122.996 28.4566 122.803 28.5865 122.607 28.7605L122.406 28.3112L126.449 26.4981L126.651 26.9474C126.391 26.9776 126.165 27.0357 125.973 27.1216C125.746 27.2237 125.596 27.3702 125.523 27.5611C125.457 27.7346 125.478 27.9412 125.585 28.1808L130.073 38.191L132.47 25.6765L132.252 25.1913C132.145 24.9516 131.999 24.8015 131.813 24.7408C131.634 24.6627 131.431 24.6747 131.203 24.7767C131.024 24.8573 130.83 24.9873 130.623 25.1666L130.421 24.7173L134.465 22.9043L134.666 23.3536Z" fill="white" fill-opacity="0.5"/>
<path d="M143.273 35.7197C142.791 35.8932 142.286 35.9634 141.757 35.9304C141.242 35.8929 140.843 35.7924 140.56 35.6289L140.622 35.3346C140.825 35.5125 141.067 35.6209 141.346 35.6599C141.613 35.7033 141.851 35.6873 142.061 35.6116C142.457 35.4692 142.743 35.2194 142.922 34.8621C143.108 34.488 143.217 34.0721 143.247 33.6145C143.286 33.1401 143.296 32.5293 143.278 31.7822C143.271 30.989 143.289 30.3407 143.331 29.8371C143.373 29.3336 143.501 28.8757 143.716 28.4635C143.926 28.039 144.257 27.7383 144.709 27.5613C143.641 27.6949 142.681 27.587 141.83 27.2378C140.991 26.8841 140.415 26.2748 140.104 25.4101C139.619 24.0636 139.699 22.9112 140.345 21.9529C140.991 20.9946 141.974 20.2774 143.296 19.8014L148.059 18.0862L148.225 18.5495C147.952 18.5643 147.722 18.6051 147.537 18.6719C147.302 18.7564 147.141 18.8911 147.054 19.0759C146.975 19.2439 146.98 19.4515 147.069 19.6985L151.207 31.1873C151.296 31.4344 151.427 31.6036 151.599 31.695C151.78 31.7696 151.987 31.7646 152.222 31.6801C152.419 31.6089 152.622 31.494 152.83 31.3353L152.997 31.7986L148.328 33.4804L148.161 33.0171C148.422 33.0067 148.676 32.957 148.923 32.868C149.257 32.7479 149.51 32.5799 149.684 32.3639C149.857 32.1479 149.902 31.9226 149.817 31.6879L145.381 19.4275C144.95 19.471 144.549 19.5595 144.178 19.693C142.819 20.1824 141.967 20.9152 141.621 21.8912C141.287 22.8628 141.313 23.8859 141.7 24.9607C142.087 26.0354 142.727 26.7262 143.619 27.0329C144.511 27.3397 145.748 27.2083 147.329 26.6388L147.389 26.8056C146.475 27.1348 145.81 27.5765 145.396 28.1305C144.994 28.68 144.76 29.2526 144.696 29.848C144.631 30.4435 144.626 31.185 144.68 32.0725C144.726 32.7817 144.736 33.3504 144.709 33.7789C144.677 34.195 144.549 34.576 144.325 34.9219C144.118 35.2758 143.767 35.5417 143.273 35.7197Z" fill="white" fill-opacity="0.5"/>
<path d="M181.733 24.3922C181.994 24.5528 182.337 24.5893 182.761 24.5017C183.095 24.4327 183.438 24.3083 183.79 24.1284L183.866 24.4949C183.584 24.6872 183.173 24.8391 182.632 24.9506C182.362 25.0063 182.068 25.0403 181.749 25.0526C181.022 25.0416 180.396 24.8961 179.869 24.6161C179.354 24.3334 178.892 23.9127 178.482 23.3538C178.084 22.7923 177.663 22.0482 177.217 21.1213C176.841 20.3408 176.349 19.6781 175.74 19.1334C175.142 18.5731 174.611 18.3408 174.149 18.4363L172.779 18.719L174.161 25.4122C174.214 25.6694 174.319 25.8555 174.477 25.9704C174.645 26.0698 174.851 26.0942 175.095 26.0438C175.301 26.0013 175.518 25.9163 175.747 25.7887L175.846 26.2709L171.506 27.1668L171.407 26.6846C171.667 26.7113 171.9 26.7034 172.106 26.6609C172.35 26.6105 172.523 26.5077 172.625 26.3526C172.737 26.1819 172.767 25.968 172.714 25.7108L171.332 19.0176L169.944 19.3043C169.481 19.3999 169.079 19.8247 168.739 20.5787C168.408 21.3172 168.225 22.1192 168.189 22.9846C168.147 24.0124 168.048 24.8641 167.892 25.5397C167.75 26.2127 167.492 26.7821 167.119 27.2479C166.758 27.7111 166.247 28.0915 165.585 28.3891C165.287 28.5043 165.003 28.5897 164.732 28.6454C164.192 28.7569 163.755 28.7802 163.42 28.7153L163.344 28.3489C163.738 28.3747 164.102 28.3532 164.437 28.2842C164.861 28.1966 165.161 28.0274 165.337 27.7765C165.639 27.3523 165.878 26.7598 166.057 25.9991C166.235 25.2383 166.348 24.2295 166.397 22.9725C166.424 22.3234 166.568 21.7238 166.83 21.1737C167.102 20.6081 167.45 20.1476 167.872 19.7922C168.292 19.4239 168.747 19.1894 169.235 19.0885L163.903 14.9806C163.639 14.8071 163.36 14.6904 163.066 14.6304C162.77 14.5575 162.486 14.549 162.216 14.6047C162.049 14.6392 161.863 14.7112 161.658 14.8206L161.558 14.3384L165.435 13.5381L165.535 14.0203C165.313 13.9856 165.119 13.9855 164.951 14.02C164.771 14.0572 164.638 14.125 164.551 14.2234C164.464 14.3217 164.432 14.4288 164.456 14.5445C164.48 14.6603 164.565 14.7769 164.71 14.8945L169.779 18.8959L171.245 18.5933L170.245 13.7518C170.192 13.4946 170.082 13.3163 169.914 13.2169C169.756 13.102 169.555 13.0698 169.311 13.1202C169.118 13.16 168.901 13.2451 168.659 13.3753L168.56 12.8931L172.9 11.9972L172.999 12.4794C172.726 12.4554 172.493 12.4633 172.3 12.5031C172.056 12.5535 171.878 12.664 171.766 12.8347C171.663 12.9898 171.639 13.196 171.692 13.4532L172.691 18.2947L174.138 17.996L177.209 12.3145C177.295 12.1491 177.327 12.0086 177.303 11.8928C177.279 11.7771 177.207 11.6913 177.089 11.6354C176.97 11.5794 176.827 11.5687 176.66 11.6032C176.493 11.6377 176.308 11.7161 176.105 11.8384L176.005 11.3562L179.882 10.5559L179.982 11.0381C179.75 11.019 179.551 11.0266 179.383 11.0611C179.113 11.1169 178.857 11.2369 178.613 11.4212C178.367 11.5927 178.157 11.8103 177.984 12.0741L174.713 17.9577C175.202 17.8569 175.712 17.8924 176.244 18.0642C176.773 18.2232 177.267 18.5098 177.728 18.9241C178.2 19.323 178.576 19.8151 178.858 20.4004C179.4 21.5353 179.904 22.4167 180.369 23.0448C180.834 23.6728 181.288 24.122 181.733 24.3922Z" fill="white" fill-opacity="0.5"/>
<path d="M195.919 9.50471C195.65 9.45491 195.417 9.4407 195.221 9.46209C194.973 9.48918 194.785 9.58235 194.657 9.74162C194.541 9.8864 194.497 10.0893 194.526 10.3504L195.852 22.4893C195.88 22.7504 195.968 22.9456 196.114 23.0749C196.272 23.1898 196.475 23.2336 196.723 23.2065C196.931 23.1837 197.156 23.1196 197.395 23.0142L197.449 23.5037L193.043 23.9849L192.99 23.4954C193.259 23.5452 193.492 23.5594 193.688 23.538C193.936 23.5109 194.118 23.425 194.234 23.2802C194.362 23.121 194.412 22.9108 194.383 22.6497L193.201 11.8226L187.07 22.9929L187.12 23.4432C187.148 23.7042 187.235 23.8994 187.382 24.0287C187.539 24.1436 187.742 24.1875 187.99 24.1604C188.199 24.1376 188.423 24.0735 188.663 23.968L188.716 24.4575L184.311 24.9387L184.258 24.4492C184.514 24.5005 184.747 24.5147 184.956 24.4919C185.204 24.4648 185.386 24.3788 185.502 24.2341C185.63 24.0748 185.68 23.8646 185.651 23.6036L184.325 11.4646C184.297 11.2036 184.203 11.0156 184.046 10.9008C183.899 10.7714 183.702 10.7203 183.454 10.7474C183.245 10.7702 183.021 10.8343 182.782 10.9397L182.728 10.4503L187.134 9.96907L187.187 10.4585C186.931 10.4073 186.698 10.3931 186.489 10.4159C186.241 10.443 186.053 10.5362 185.925 10.6955C185.809 10.8402 185.765 11.0432 185.794 11.3042L186.985 22.2097L193.115 11.0394L193.057 10.5108C193.029 10.2497 192.936 10.0618 192.778 9.94693C192.632 9.81761 192.435 9.76649 192.187 9.79358C191.991 9.81497 191.767 9.87907 191.514 9.9859L191.461 9.49643L195.866 9.01524L195.919 9.50471Z" fill="white" fill-opacity="0.5"/>
<path d="M205.413 15.225C205.886 15.2499 206.449 15.3772 207.099 15.6069C207.763 15.823 208.352 16.1794 208.866 16.6759C209.381 17.1725 209.649 17.8014 209.673 18.5626C209.705 19.6125 209.469 20.4999 208.966 21.2246C208.476 21.9359 207.822 22.4682 207.005 22.8217C206.201 23.1747 205.347 23.3651 204.441 23.3928L199.343 23.549L199.328 23.0569C199.579 23.128 199.804 23.1605 200 23.1545C200.512 23.1388 200.773 22.8615 200.783 22.3226L200.409 10.1172C200.366 9.5799 200.089 9.31909 199.577 9.33477C199.38 9.3408 199.158 9.38701 198.911 9.47339L198.896 8.98124L203.68 8.83469C204.927 8.79649 206.011 9.01288 206.932 9.48386C207.865 9.95443 208.351 10.7803 208.387 11.9615C208.404 12.5258 208.243 13.0496 207.903 13.533C207.576 14.0028 207.174 14.3895 206.697 14.6931C206.22 14.9836 205.791 15.1478 205.412 15.1857C205.385 15.1865 205.372 15.1934 205.373 15.2066C205.373 15.2197 205.387 15.2258 205.413 15.225ZM202.039 15.0919L204.677 15.0111C205.202 14.995 205.735 14.8014 206.275 14.4301C206.816 14.0589 207.069 13.3286 207.036 12.2393C207.015 11.1234 206.681 10.306 206.034 9.78721C205.401 9.25489 204.631 9.0026 203.725 9.03035C203.056 9.05085 202.434 9.12244 201.86 9.24513L202.039 15.0919ZM203.923 23.2117C204.855 23.1831 205.637 22.9752 206.269 22.5881C206.9 22.1878 207.364 21.6678 207.66 21.0282C207.968 20.3751 208.11 19.6613 208.087 18.887C208.061 18.0471 207.869 17.3633 207.511 16.8356C207.154 16.308 206.722 15.9337 206.216 15.7128C205.71 15.4918 205.201 15.3892 204.689 15.4048L202.051 15.4857L202.227 21.2143C202.245 21.8049 202.331 22.2489 202.484 22.5464C202.651 22.8434 202.847 23.0344 203.073 23.1195C203.312 23.191 203.595 23.2217 203.923 23.2117Z" fill="white" fill-opacity="0.5"/>
<path d="M220.159 24.0317C218.834 23.9718 217.702 23.5723 216.763 22.8332C215.824 22.081 215.126 21.1031 214.668 19.8994C214.223 18.6964 214.025 17.3862 214.076 15.969C214.114 14.8535 214.368 13.7281 214.84 12.5928C215.313 11.4443 216.033 10.4911 217 9.73307C217.968 8.96193 219.187 8.60957 220.656 8.67599C222.138 8.743 223.334 9.18481 224.243 10.0014C225.167 10.8055 225.812 11.7941 226.179 12.9674C226.56 14.1413 226.723 15.3316 226.669 16.5383C226.604 17.9681 226.315 19.2628 225.803 20.4226C225.291 21.5692 224.553 22.4757 223.59 23.1419C222.641 23.7955 221.497 24.0921 220.159 24.0317ZM220.177 23.6381C221.764 23.7099 222.942 23.0797 223.712 21.7476C224.496 20.4029 224.931 18.6416 225.016 16.4636C225.054 15.335 224.927 14.212 224.636 13.0948C224.358 11.9781 223.881 11.0431 223.205 10.2896C222.543 9.52365 221.688 9.11694 220.638 9.0695C219.576 9.02146 218.685 9.38209 217.967 10.1514C217.249 10.9076 216.707 11.8491 216.341 12.9761C215.988 14.1036 215.787 15.1986 215.739 16.2611C215.679 17.599 215.794 18.8134 216.087 19.9044C216.392 20.996 216.885 21.8792 217.564 22.554C218.256 23.2293 219.127 23.5907 220.177 23.6381Z" fill="white" fill-opacity="0.5"/>
<path d="M238.421 12.8204C238.337 13.5377 238.3 14.082 238.309 14.4533C238.332 14.826 238.424 15.1079 238.587 15.2987L238.313 15.2668C238.136 14.8627 238.011 14.2928 237.938 13.5573C237.876 12.9551 237.774 12.4739 237.631 12.1135C237.501 11.7546 237.207 11.4361 236.751 11.1581C236.296 10.867 235.592 10.6658 234.64 10.5547C233.949 10.4739 233.42 10.5312 233.053 10.7263C232.7 10.923 232.467 11.1667 232.353 11.4576C232.242 11.7353 232.147 12.0944 232.069 12.5348L230.801 23.392C230.771 23.6528 230.812 23.8626 230.926 24.0213C231.054 24.1684 231.242 24.2565 231.49 24.2854C231.699 24.3098 231.931 24.2973 232.188 24.248L232.131 24.7371L227.73 24.2231L227.787 23.734C228.025 23.8412 228.249 23.907 228.458 23.9313C228.705 23.9603 228.902 23.9172 229.048 23.802C229.208 23.6753 229.303 23.4815 229.334 23.2207L230.75 11.0919C230.781 10.8311 230.732 10.6271 230.604 10.4799C230.49 10.3212 230.309 10.2274 230.061 10.1985C229.853 10.1741 229.62 10.1866 229.363 10.2359L229.42 9.74682L238.654 10.8251L238.421 12.8204Z" fill="white" fill-opacity="0.5"/>
<path d="M246.494 27.4659C245.191 27.2189 244.127 26.6631 243.302 25.7984C242.479 24.9209 241.926 23.8539 241.643 22.5974C241.373 21.3435 241.364 20.0186 241.615 18.6229C241.81 17.5239 242.221 16.4459 242.849 15.3889C243.48 14.319 244.327 13.4774 245.393 12.8641C246.46 12.2378 247.716 12.0616 249.161 12.3355C250.619 12.6118 251.74 13.2185 252.525 14.1557C253.325 15.0825 253.823 16.1526 254.021 17.3661C254.232 18.582 254.224 19.7834 253.999 20.9703C253.733 22.3765 253.264 23.6173 252.592 24.6928C251.923 25.7553 251.065 26.5481 250.017 27.0712C248.984 27.5837 247.81 27.7153 246.494 27.4659ZM246.567 27.0789C248.128 27.3747 249.384 26.9179 250.335 25.7082C251.301 24.4882 251.981 22.8061 252.374 20.6622C252.571 19.5503 252.605 18.4207 252.475 17.2735C252.358 16.1287 252.018 15.1356 251.456 14.294C250.909 13.442 250.12 12.9181 249.088 12.7225C248.043 12.5245 247.11 12.7553 246.29 13.4151C245.473 14.062 244.803 14.9173 244.281 15.9809C243.771 17.0471 243.417 18.1026 243.219 19.1475C242.97 20.4634 242.913 21.682 243.048 22.8035C243.195 23.9273 243.558 24.8714 244.135 25.6355C244.724 26.4021 245.535 26.8833 246.567 27.0789Z" fill="white" fill-opacity="0.5"/>
<path d="M263.532 30.8071C263.745 30.9598 263.951 31.069 264.15 31.1346C264.387 31.2125 264.589 31.2096 264.755 31.1259C264.937 31.0338 265.069 30.863 265.151 30.6135L268.965 19.0131C269.047 18.7636 269.039 18.5539 268.943 18.3841C268.864 18.2059 268.705 18.0778 268.468 17.9999C268.269 17.9343 268.038 17.9 267.777 17.8969L267.93 17.4291L270.756 18.3579L266.554 31.0748C266.472 31.3243 266.471 31.5381 266.551 31.7163C266.647 31.8862 266.814 32.0101 267.051 32.088C267.25 32.1536 267.481 32.1879 267.742 32.191L267.589 32.6587L263.379 31.2748L263.532 30.8071ZM269.064 26.5925C269.185 26.646 269.364 26.7117 269.601 26.7896C270.748 27.1668 271.73 27.1233 272.546 26.659C273.366 26.1823 273.945 25.4325 274.281 24.4097C274.494 23.761 274.558 23.0632 274.472 22.3162C274.39 21.5567 274.131 20.8705 273.697 20.2578C273.267 19.6326 272.659 19.1908 271.873 18.9325C271.586 18.8382 271.366 18.7727 271.212 18.7359C271.058 18.6992 270.869 18.6855 270.645 18.6947L270.756 18.3579L272.252 18.85C273.101 19.1288 273.858 19.5575 274.525 20.136C275.204 20.7187 275.686 21.4163 275.972 22.229C276.258 23.0416 276.249 23.9095 275.946 24.8325C275.712 25.5435 275.28 26.1412 274.651 26.6254C274.026 27.0972 273.293 27.395 272.45 27.5189C271.608 27.6429 270.775 27.5695 269.952 27.2988C269.553 27.1676 269.226 27.0257 268.972 26.8732L269.064 26.5925Z" fill="white" fill-opacity="0.5"/>
<path d="M283.612 39.1476C282.389 38.6363 281.463 37.8723 280.835 36.8556C280.211 35.8268 279.891 34.6685 279.874 33.3807C279.87 32.098 280.135 30.7998 280.669 29.4863C281.087 28.4515 281.713 27.482 282.546 26.5778C283.384 25.6615 284.388 25.0136 285.557 24.634C286.731 24.2423 287.996 24.3299 289.353 24.8968C290.722 25.4689 291.694 26.2945 292.267 27.3738C292.858 28.446 293.125 29.5962 293.067 30.8243C293.021 32.0575 292.766 33.2314 292.3 34.346C291.748 35.6666 291.032 36.7834 290.153 37.6966C289.278 38.5977 288.274 39.1957 287.141 39.4905C286.024 39.7782 284.848 39.6639 283.612 39.1476ZM283.764 38.7842C285.23 39.3967 286.554 39.2096 287.734 38.223C288.932 37.2293 289.945 35.7244 290.773 33.7082C291.197 32.6612 291.463 31.5631 291.574 30.4138C291.696 29.2695 291.569 28.2276 291.193 27.2879C290.835 26.3411 290.171 25.6653 289.202 25.2603C288.22 24.8503 287.26 24.8831 286.321 25.3589C285.388 25.8226 284.555 26.5207 283.824 27.4533C283.105 28.3909 282.54 29.3503 282.13 30.3317C281.614 31.5674 281.306 32.7478 281.206 33.8729C281.118 35.003 281.277 36.0016 281.683 36.8686C282.101 37.7407 282.795 38.3792 283.764 38.7842Z" fill="white" fill-opacity="0.5"/>
<path d="M287.442 44.718C287.683 44.6501 287.917 44.4675 288.144 44.1703C288.358 43.8672 288.63 43.3943 288.96 42.7518L289.877 40.9643C290.01 41.1066 290.17 41.2257 290.357 41.3216C290.72 41.5073 291.128 41.5027 291.582 41.3078C292.302 40.91 293.213 40.0708 294.312 38.7903C295.429 37.504 296.51 36.1175 297.553 34.6308C298.601 33.1324 299.374 31.9278 299.871 31.0168C299.774 30.7163 299.533 30.4672 299.148 30.2694C298.961 30.1735 298.712 30.0976 298.401 30.0415L298.626 29.6034L308.037 34.4306L307.803 34.8863C307.617 34.7023 307.431 34.5624 307.244 34.4665C307.022 34.3526 306.813 34.327 306.619 34.3896C306.442 34.4465 306.294 34.5918 306.174 34.8254L300.601 45.6905C300.481 45.9242 300.446 46.1352 300.497 46.3237C300.566 46.5064 300.711 46.6547 300.933 46.7686C301.12 46.8645 301.343 46.9343 301.6 46.9781L300.684 48.7656C300.354 49.4081 300.129 49.905 300.008 50.256C299.898 50.6131 299.886 50.9096 299.972 51.1453L299.727 51.0195C299.694 50.7373 299.694 50.4642 299.726 50.2003C299.77 49.9424 299.832 49.6494 299.911 49.3214C299.998 48.9229 300.054 48.5976 300.08 48.3453C300.106 48.0931 300.077 47.8197 299.992 47.5252C299.918 47.2367 299.76 46.9415 299.516 46.6395C299.441 46.5271 299.258 46.3814 298.966 46.2022C298.68 46.0407 298.096 45.7264 297.214 45.2592C293.539 43.4185 291.608 42.4943 291.42 42.4864C290.845 42.457 290.389 42.5404 290.052 42.7366C289.721 42.9505 289.354 43.2785 288.95 43.7206C288.706 43.9941 288.495 44.218 288.317 44.3923C288.128 44.5607 287.918 44.7112 287.687 44.8439L287.442 44.718ZM297.439 44.8211C297.941 45.0788 298.351 45.1711 298.669 45.0981C298.987 45.025 299.229 44.8689 299.396 44.6299C299.575 44.3968 299.799 44.0174 300.068 43.4917L304.86 34.1512C305.01 33.8591 305.006 33.636 304.849 33.4817C304.71 33.3217 304.383 33.1098 303.869 32.8461C302.268 32.0251 301.167 31.5117 300.564 31.3058C300.103 32.1467 299.399 33.2464 298.451 34.6048C297.521 35.9576 296.548 37.2513 295.531 38.4857C294.514 39.7202 293.659 40.6098 292.966 41.1547L292.762 41.3376C292.566 41.5176 292.451 41.6426 292.415 41.7127C292.325 41.888 292.393 42.0707 292.62 42.261C292.853 42.4396 293.35 42.7236 294.109 43.1132L297.439 44.8211Z" fill="white" fill-opacity="0.5"/>
<path d="M322.628 43.9839C322.446 43.7786 322.272 43.6242 322.104 43.5205C321.892 43.3891 321.687 43.3468 321.488 43.3936C321.307 43.436 321.148 43.5689 321.009 43.7922L314.58 54.1737C314.442 54.3969 314.39 54.6045 314.426 54.7964C314.48 54.9841 314.612 55.1436 314.824 55.275C315.003 55.3856 315.219 55.4731 315.473 55.5375L315.214 55.9561L311.446 53.6228L311.705 53.2042C311.887 53.4094 312.062 53.5639 312.229 53.6676C312.441 53.799 312.638 53.8434 312.818 53.8009C313.017 53.7542 313.186 53.6192 313.324 53.3959L316.881 47.6526L310.669 43.8053L307.112 49.5486C306.974 49.7719 306.922 49.9795 306.958 50.1714C307.012 50.3591 307.15 50.522 307.373 50.6603C307.541 50.764 307.751 50.848 308.005 50.9124L307.746 51.331L303.978 48.9978L304.237 48.5792C304.408 48.7775 304.583 48.932 304.761 49.0426C304.973 49.1739 305.17 49.2184 305.35 49.1759C305.549 49.1291 305.718 48.9941 305.856 48.7709L312.286 38.3894C312.424 38.1661 312.466 37.9607 312.412 37.773C312.377 37.581 312.253 37.4194 312.041 37.2881C311.862 37.1774 311.646 37.0899 311.393 37.0256L311.652 36.607L315.419 38.9402L315.16 39.3588C314.99 39.1605 314.815 39.006 314.636 38.8954C314.424 38.7641 314.219 38.7218 314.02 38.7685C313.839 38.811 313.68 38.9439 313.541 39.1671L310.876 43.4704L317.088 47.3177L319.754 43.0144C319.892 42.7912 319.934 42.5857 319.88 42.398C319.845 42.2061 319.721 42.0445 319.509 41.9131C319.341 41.8094 319.125 41.7219 318.861 41.6506L319.12 41.232L322.887 43.5653L322.628 43.9839Z" fill="white" fill-opacity="0.5"/>
<path d="M335.676 53.6487C335.511 53.4295 335.349 53.2615 335.191 53.1446C334.99 52.9966 334.788 52.9379 334.587 52.9685C334.403 52.9963 334.233 53.116 334.077 53.3274L326.834 63.1579C326.678 63.3693 326.61 63.5721 326.63 63.7663C326.668 63.9576 326.788 64.1273 326.989 64.2753C327.158 64.4 327.366 64.5046 327.614 64.5891L327.322 64.9855L323.754 62.3567L324.046 61.9603C324.211 62.1795 324.373 62.3475 324.531 62.4644C324.732 62.6124 324.924 62.6724 325.108 62.6446C325.31 62.614 325.489 62.493 325.644 62.2816L332.105 53.5134L320.031 57.5823L319.762 57.947C319.606 58.1584 319.538 58.3612 319.558 58.5554C319.597 58.7467 319.716 58.9164 319.917 59.0644C320.086 59.189 320.295 59.2936 320.542 59.3782L320.25 59.7746L316.683 57.1458L316.975 56.7494C317.129 56.9608 317.29 57.1288 317.46 57.2535C317.66 57.4014 317.853 57.4615 318.036 57.4337C318.238 57.4031 318.417 57.2821 318.573 57.0707L325.817 47.2402C325.972 47.0288 326.031 46.8274 325.993 46.636C325.973 46.4418 325.862 46.2707 325.661 46.1228C325.492 45.9981 325.284 45.8935 325.036 45.809L325.328 45.4126L328.896 48.0414L328.604 48.4378C328.45 48.2264 328.288 48.0583 328.119 47.9337C327.918 47.7857 327.717 47.727 327.515 47.7576C327.331 47.7854 327.162 47.905 327.006 48.1165L320.498 56.9481L332.573 52.8792L332.888 52.4511C333.044 52.2397 333.103 52.0383 333.064 51.8469C333.044 51.6527 332.934 51.4817 332.733 51.3337C332.575 51.2168 332.366 51.1122 332.108 51.0199L332.4 50.6235L335.968 53.2523L335.676 53.6487Z" fill="white" fill-opacity="0.5"/>
<path d="M337.109 72.7296C337.141 73.0345 337.32 73.3287 337.648 73.6122C337.906 73.8356 338.214 74.0321 338.57 74.2018L338.325 74.4848C338.001 74.3779 337.631 74.1441 337.214 73.7833C337.005 73.6029 336.799 73.3897 336.595 73.1438C336.162 72.5607 335.896 71.9749 335.797 71.3862C335.718 70.7963 335.77 70.1734 335.956 69.5177C336.15 68.8521 336.484 68.0646 336.958 67.1553C337.349 66.3823 337.575 65.5887 337.637 64.7743C337.718 63.9586 337.58 63.3961 337.222 63.0869L336.165 62.172L331.693 67.3405C331.521 67.5391 331.438 67.7359 331.443 67.9311C331.466 68.1249 331.572 68.3034 331.76 68.4666C331.919 68.604 332.119 68.7246 332.359 68.8282L332.037 69.2006L328.686 66.3012L329.008 65.9288C329.145 66.1517 329.293 66.3318 329.452 66.4692C329.64 66.6325 329.827 66.7074 330.013 66.694C330.216 66.6793 330.404 66.5726 330.576 66.374L338.565 57.1392C338.737 56.9406 338.811 56.7444 338.788 56.5506C338.783 56.3555 338.687 56.1763 338.498 56.0131C338.339 55.8756 338.139 55.7551 337.899 55.6514L338.221 55.279L341.573 58.1784L341.251 58.5508C341.113 58.328 340.965 58.1479 340.807 58.0104C340.618 57.8472 340.422 57.773 340.218 57.7877C340.033 57.8011 339.854 57.9071 339.682 58.1057L336.448 61.8443L337.565 62.8107L343.942 61.7911C344.126 61.7592 344.257 61.6986 344.334 61.6092C344.412 61.5198 344.436 61.411 344.408 61.2827C344.38 61.1544 344.302 61.0344 344.173 60.9227C344.034 60.8024 343.859 60.7034 343.649 60.6255L343.971 60.2531L346.965 62.8433L346.643 63.2156C346.517 63.0199 346.389 62.8662 346.26 62.7546C346.052 62.5742 345.8 62.4434 345.506 62.3623C345.22 62.2712 344.919 62.2371 344.605 62.2599L337.946 63.244C338.323 63.5705 338.605 63.9969 338.792 64.5233C338.988 65.0397 339.061 65.6069 339.013 66.2248C338.983 66.8413 338.821 67.4394 338.528 68.0192C337.958 69.1402 337.565 70.0763 337.349 70.8272C337.133 71.5782 337.053 72.2123 337.109 72.7296Z" fill="white" fill-opacity="0.5"/>
<path d="M347.179 82.6025C347.001 82.9082 347.047 83.1962 347.315 83.4665C347.491 83.6435 347.773 83.8256 348.163 84.0127L347.813 84.3596L344.469 80.9911L344.819 80.6442C344.994 81.0069 345.178 81.2861 345.373 81.4818C345.595 81.7054 345.785 81.7386 345.943 81.5813C345.99 81.5351 346.022 81.4934 346.041 81.4564L348.776 76.2437L345.834 73.2805C344.383 74.0552 342.946 74.8438 341.522 75.6464L341.076 75.8954C341.001 75.9323 340.922 75.9924 340.838 76.0756C340.568 76.3439 340.599 76.6458 340.932 76.9812C341.117 77.1676 341.372 77.3403 341.696 77.4993L341.347 77.8462L338.447 74.9249L338.796 74.578C338.934 74.8849 339.105 75.1409 339.309 75.3459C339.586 75.6254 339.897 75.7147 340.241 75.6139C340.436 75.5496 340.627 75.4714 340.813 75.3792L353.413 68.7539L354.218 69.5646L347.179 82.6025ZM346.155 73.1006L348.944 75.9101L352.086 69.9051L346.155 73.1006Z" fill="white" fill-opacity="0.5"/>
<path d="M355.831 93.1514C355.92 93.3975 356.028 93.6041 356.155 93.7712C356.306 93.9696 356.474 94.0812 356.658 94.106C356.86 94.1332 357.066 94.0673 357.275 93.908L366.985 86.5036C367.194 86.3444 367.307 86.1676 367.323 85.9731C367.359 85.7811 367.301 85.5859 367.149 85.3875C367.022 85.2205 366.851 85.0616 366.637 84.911L367.029 84.6125L374.816 94.8238L374.424 95.1224C374.327 94.8658 374.219 94.6592 374.1 94.5026C373.949 94.3042 373.772 94.1914 373.569 94.1641C373.385 94.1393 373.189 94.2065 372.98 94.3658L363.27 101.77C363.061 101.929 362.939 102.105 362.904 102.297C362.887 102.491 362.954 102.688 363.105 102.886C363.233 103.053 363.404 103.212 363.617 103.363L363.226 103.661L360.539 100.137L360.93 99.8389C361.027 100.095 361.135 100.302 361.254 100.459C361.406 100.657 361.573 100.769 361.757 100.793C361.96 100.821 362.165 100.755 362.374 100.596L370.722 94.2301C371.192 93.8719 371.526 93.5843 371.723 93.3674C371.929 93.1609 372.04 92.8947 372.056 92.569C372.072 92.2432 371.908 91.8558 371.566 91.4069L369.464 88.6504C369.122 88.2015 368.791 87.9415 368.473 87.8705C368.155 87.7995 367.865 87.8307 367.603 87.9641C367.35 88.1079 366.988 88.359 366.518 88.7173L358.17 95.0826C357.962 95.2419 357.84 95.4175 357.804 95.6095C357.788 95.8039 357.855 96.0004 358.006 96.1988C358.133 96.3658 358.304 96.5246 358.518 96.6753L358.126 96.9738L355.439 93.45L355.831 93.1514Z" fill="white" fill-opacity="0.5"/>
<path d="M364.815 105.33C364.883 105.582 364.974 105.797 365.088 105.973C365.223 106.183 365.381 106.308 365.562 106.348C365.762 106.391 365.972 106.342 366.193 106.2L376.467 99.6008C376.688 99.4589 376.815 99.2917 376.848 99.0992C376.898 98.9107 376.856 98.7114 376.721 98.5015C376.608 98.3248 376.45 98.1527 376.249 97.9854L376.664 97.7193L378.271 100.222L366.991 107.443C366.77 107.585 366.635 107.75 366.584 107.938C366.552 108.131 366.603 108.332 366.738 108.542C366.851 108.719 367.008 108.891 367.21 109.058L366.795 109.324L364.4 105.596L364.815 105.33ZM371.766 105.547C371.826 105.664 371.923 105.828 372.058 106.038C372.711 107.054 373.5 107.64 374.426 107.794C375.364 107.941 376.285 107.723 377.191 107.142C377.766 106.773 378.255 106.271 378.659 105.637C379.074 104.996 379.306 104.3 379.356 103.551C379.416 102.794 379.223 102.068 378.776 101.372C378.612 101.118 378.483 100.928 378.386 100.803C378.29 100.677 378.152 100.547 377.972 100.413L378.271 100.222L379.122 101.547C379.605 102.299 379.922 103.109 380.075 103.978C380.235 104.859 380.169 105.705 379.879 106.516C379.588 107.326 379.034 107.994 378.216 108.519C377.587 108.924 376.875 109.116 376.081 109.095C375.299 109.067 374.542 108.836 373.81 108.401C373.078 107.966 372.478 107.383 372.009 106.654C371.782 106.301 371.618 105.985 371.517 105.706L371.766 105.547Z" fill="white" fill-opacity="0.5"/>
<path d="M391.001 123.447C390.947 123.178 390.874 122.957 390.781 122.783C390.664 122.563 390.507 122.424 390.312 122.364C390.134 122.31 389.929 122.345 389.698 122.469L378.926 128.22C378.694 128.344 378.545 128.497 378.48 128.681C378.432 128.87 378.467 129.075 378.584 129.295C378.683 129.48 378.826 129.665 379.013 129.848L378.579 130.079L376.492 126.17L376.926 125.938C376.98 126.207 377.054 126.428 377.147 126.602C377.264 126.822 377.412 126.959 377.589 127.013C377.785 127.073 377.998 127.04 378.23 126.917L387.838 121.787L375.188 120.258L374.789 120.471C374.557 120.595 374.408 120.748 374.343 120.932C374.295 121.121 374.33 121.326 374.447 121.546C374.546 121.732 374.689 121.916 374.876 122.099L374.442 122.331L372.355 118.421L372.789 118.189C372.837 118.447 372.911 118.668 373.009 118.853C373.127 119.073 373.275 119.21 373.452 119.264C373.648 119.324 373.861 119.292 374.093 119.168L384.865 113.417C385.097 113.293 385.236 113.137 385.284 112.947C385.35 112.763 385.324 112.562 385.206 112.341C385.107 112.156 384.964 111.972 384.777 111.789L385.212 111.557L387.299 115.466L386.864 115.698C386.816 115.441 386.743 115.22 386.644 115.034C386.527 114.814 386.37 114.675 386.175 114.615C385.997 114.561 385.792 114.596 385.561 114.72L375.883 119.887L388.533 121.416L389.002 121.166C389.234 121.042 389.373 120.886 389.421 120.696C389.487 120.512 389.461 120.31 389.343 120.09C389.251 119.917 389.108 119.733 388.914 119.538L389.349 119.306L391.436 123.215L391.001 123.447Z" fill="white" fill-opacity="0.5"/>
<path d="M398.163 145.032C397.488 145.29 396.988 145.509 396.664 145.689C396.344 145.882 396.137 146.094 396.043 146.327L395.944 146.069C396.22 145.725 396.668 145.35 397.286 144.945C397.791 144.612 398.17 144.298 398.424 144.005C398.682 143.724 398.828 143.316 398.864 142.783C398.911 142.245 398.764 141.528 398.422 140.632C398.173 139.982 397.878 139.54 397.535 139.305C397.198 139.083 396.873 138.989 396.563 139.023C396.265 139.053 395.903 139.135 395.477 139.269L385.265 143.169C385.02 143.263 384.853 143.397 384.765 143.571C384.694 143.753 384.703 143.961 384.792 144.194C384.867 144.39 384.986 144.59 385.148 144.795L384.688 144.971L383.107 140.831L383.567 140.656C383.582 140.917 383.628 141.145 383.703 141.342C383.792 141.575 383.921 141.729 384.09 141.805C384.277 141.888 384.493 141.883 384.738 141.79L396.146 137.433C396.391 137.339 396.549 137.201 396.62 137.019C396.708 136.845 396.708 136.642 396.619 136.409C396.544 136.212 396.425 136.012 396.262 135.807L396.722 135.631L400.039 144.316L398.163 145.032Z" fill="white" fill-opacity="0.5"/>
<path d="M388.916 158.966C388.532 157.697 388.533 156.496 388.917 155.365C389.315 154.229 390.005 153.246 390.988 152.413C391.974 151.593 393.144 150.972 394.498 150.549C395.562 150.213 396.708 150.079 397.936 150.147C399.176 150.21 400.315 150.572 401.351 151.233C402.4 151.889 403.138 152.922 403.564 154.329C403.993 155.749 403.974 157.024 403.506 158.153C403.055 159.291 402.337 160.229 401.353 160.965C400.372 161.715 399.304 162.264 398.148 162.614C396.778 163.028 395.461 163.187 394.197 163.089C392.945 162.988 391.845 162.593 390.896 161.906C389.964 161.228 389.304 160.248 388.916 158.966ZM389.293 158.852C389.753 160.373 390.74 161.275 392.252 161.558C393.781 161.85 395.586 161.674 397.669 161.03C398.746 160.691 399.763 160.198 400.72 159.552C401.68 158.918 402.403 158.158 402.889 157.27C403.392 156.391 403.491 155.449 403.187 154.443C402.879 153.425 402.242 152.705 401.278 152.284C400.326 151.858 399.258 151.66 398.073 151.689C396.893 151.731 395.793 151.906 394.775 152.214C393.493 152.602 392.386 153.115 391.455 153.753C390.527 154.405 389.858 155.163 389.447 156.028C389.04 156.905 388.989 157.847 389.293 158.852Z" fill="white" fill-opacity="0.5"/>
<path d="M391.759 166.047C391.736 166.308 391.746 166.541 391.791 166.746C391.845 166.99 391.949 167.162 392.106 167.262C392.278 167.372 392.492 167.399 392.749 167.343L404.677 164.731C404.934 164.674 405.111 164.562 405.208 164.393C405.321 164.233 405.351 164.032 405.297 163.788C405.252 163.583 405.165 163.367 405.034 163.14L405.515 163.035L406.152 165.94L393.065 168.786C392.808 168.842 392.623 168.95 392.51 169.109C392.413 169.278 392.391 169.484 392.444 169.728C392.489 169.933 392.577 170.149 392.707 170.376L392.226 170.482L391.278 166.153L391.759 166.047ZM398.201 168.669C398.216 168.8 398.25 168.988 398.304 169.231C398.562 170.411 399.098 171.235 399.913 171.702C400.741 172.166 401.68 172.282 402.732 172.052C403.399 171.906 404.032 171.606 404.632 171.152C405.244 170.695 405.704 170.124 406.011 169.439C406.33 168.75 406.402 168.002 406.225 167.194C406.16 166.899 406.105 166.676 406.058 166.525C406.011 166.374 405.927 166.204 405.805 166.016L406.152 165.94L406.489 167.479C406.68 168.351 406.696 169.222 406.536 170.09C406.38 170.971 406.024 171.741 405.47 172.4C404.915 173.059 404.163 173.493 403.214 173.701C402.483 173.861 401.749 173.793 401.012 173.497C400.288 173.199 399.659 172.718 399.124 172.056C398.589 171.393 398.229 170.639 398.043 169.792C397.953 169.382 397.91 169.029 397.912 168.732L398.201 168.669Z" fill="white" fill-opacity="0.5"/>
<path d="M400.117 190.673C399.923 190.514 399.639 190.428 399.265 190.415C398.894 190.414 398.351 190.464 397.636 190.564L395.646 190.844L394.255 180.956L394.743 180.888C394.699 181.146 394.692 181.379 394.722 181.587C394.756 181.834 394.848 182.013 394.996 182.125C395.159 182.248 395.371 182.291 395.631 182.254L407.723 180.553C407.983 180.516 408.168 180.417 408.278 180.256C408.403 180.106 408.448 179.907 408.413 179.66C408.384 179.452 408.313 179.23 408.2 178.994L408.688 178.925L409.964 187.994L409.39 188.016C409.137 188.011 408.816 188.037 408.426 188.092C407.659 188.199 407.073 188.375 406.67 188.617L406.626 188.305C406.879 188.124 407.222 187.969 407.655 187.842C408.11 187.685 408.457 187.51 408.695 187.318C408.946 187.123 409.129 186.773 409.243 186.266C409.357 185.759 409.347 185.025 409.211 184.063C409.114 183.374 408.927 182.89 408.649 182.61C408.371 182.331 408.091 182.178 407.809 182.152C407.542 182.136 407.159 182.15 406.661 182.194L402.956 182.715L403.334 185.407C403.387 185.784 403.43 186.043 403.464 186.184C403.512 186.337 403.586 186.445 403.688 186.511C403.79 186.576 403.952 186.593 404.173 186.562C404.563 186.507 404.852 186.44 405.04 186.36C405.229 186.294 405.308 186.15 405.277 185.929L405.531 185.893L405.638 186.654L401.113 187.291L401.006 186.53L401.279 186.492C401.31 186.713 401.433 186.828 401.646 186.838C401.874 186.859 402.19 186.841 402.593 186.784C402.801 186.755 402.925 186.645 402.964 186.453C403.019 186.273 403.018 185.942 402.964 185.459L402.585 182.767L397.105 183.539C396.666 183.627 396.303 183.731 396.015 183.851C395.74 183.969 395.508 184.207 395.32 184.565C395.133 184.936 395.089 185.466 395.186 186.156C395.343 187.274 395.58 188.109 395.896 188.661C396.225 189.211 396.58 189.566 396.961 189.725C397.354 189.881 397.867 189.995 398.5 190.065C399.185 190.128 399.711 190.239 400.079 190.4L400.117 190.673Z" fill="white" fill-opacity="0.5"/>
</svg>
