<svg width="44" height="43" viewBox="0 0 44 43" fill="none" xmlns="http://www.w3.org/2000/svg">
<path d="M37.4345 20.7309C38.219 20.9976 38.9719 21.2329 39.6627 21.4365C38.9719 21.6401 38.219 21.8754 37.4345 22.142C34.2335 23.2301 30.3127 24.9015 28.0284 27.1857C25.7442 29.4699 24.0729 33.3908 22.9848 36.5917C22.7182 37.3762 22.4828 38.1291 22.2792 38.8199C22.0756 38.1291 21.8403 37.3762 21.5737 36.5917C20.4856 33.3908 18.8143 29.4699 16.53 27.1857C14.2458 24.9015 10.325 23.2301 7.12399 22.142C6.33946 21.8754 5.58663 21.6401 4.89584 21.4365C5.58663 21.2329 6.33946 20.9976 7.12399 20.7309C10.325 19.6429 14.2458 17.9715 16.53 15.6873C18.8143 13.4031 20.4856 9.48219 21.5737 6.28121C21.8403 5.49669 22.0756 4.74385 22.2792 4.05306C22.4828 4.74385 22.7182 5.49669 22.9848 6.28121C24.0729 9.48219 25.7442 13.4031 28.0284 15.6873C30.3127 17.9715 34.2335 19.6429 37.4345 20.7309Z" stroke="#F6C16F" stroke-width="1.98492"/>
</svg>
